<?xml version="1.0" encoding="utf-8"?><svg viewBox="0 0 502.66 502.66" xmlns="http://www.w3.org/2000/svg" xmlns:xlink="http://www.w3.org/1999/xlink"><style>:root>svg{display:none}:root>svg:target{display:block}</style><svg viewBox="0 0 502.664 502.664" id="icon" xmlns="http://www.w3.org/2000/svg"><path d="M153.821 358.226L0 274.337v-46.463l153.821-83.414v54.574L46.636 250.523l107.185 53.431v54.272zm26.273 29.358L282.103 115.08h32.227L212.084 387.584h-31.99zm168.749-29.358v-54.272l107.164-52.999-107.164-52.59v-53.927l153.821 83.522v46.183l-153.821 84.083z"/></svg><svg viewBox="0 0 12 13" id="phone" xmlns="http://www.w3.org/2000/svg"><path d="M11.78 9.9L9.04 7.41a.674.674 0 00-.937.03L6.492 9.096c-.388-.074-1.168-.317-1.97-1.118-.804-.804-1.047-1.586-1.119-1.971L5.06 4.395a.674.674 0 00.029-.937L2.599.721a.674.674 0 00-.936-.059L.2 1.916a.674.674 0 00-.195.437c-.01.168-.203 4.157 2.89 7.252 2.698 2.698 6.079 2.895 7.01 2.895.136 0 .22-.004.241-.005a.668.668 0 00.437-.196l1.253-1.463a.672.672 0 00-.057-.936z"/></svg></svg>